<?xml version="1.0" standalone="no"?>
<!DOCTYPE svg PUBLIC "-//W3C//DTD SVG 20010904//EN"
 "http://www.w3.org/TR/2001/REC-SVG-20010904/DTD/svg10.dtd">
<svg version="1.0" xmlns="http://www.w3.org/2000/svg"
 width="512.000000pt" height="512.000000pt" viewBox="0 0 512.000000 512.000000"
 preserveAspectRatio="xMidYMid meet">
<metadata>
Created by potrace 1.14, written by Peter Selinger 2001-2017
</metadata>
<g transform="translate(0.000000,512.000000) scale(0.100000,-0.100000)"
fill="#000000" stroke="none">
<path d="M3196 5111 c-3 -5 -20 -49 -37 -97 -17 -49 -36 -94 -42 -100 -7 -6
-46 -26 -87 -45 -120 -53 -120 -66 3 -123 l93 -43 29 -87 c16 -49 34 -95 41
-104 18 -24 39 -8 58 45 58 158 50 148 134 184 92 39 102 46 102 70 0 14 -19
27 -67 49 -118 51 -113 47 -150 150 -31 86 -45 109 -65 110 -4 0 -9 -4 -12 -9z"/>
<path d="M3969 4991 c-17 -14 -23 -28 -22 -55 1 -45 24 -72 66 -79 25 -3 37 2
59 24 33 33 36 67 7 103 -25 32 -75 35 -110 7z"/>
<path d="M4678 4843 c-8 -10 -34 -74 -59 -142 l-44 -124 -70 -32 c-38 -17 -94
-42 -122 -55 -53 -23 -69 -44 -58 -72 4 -9 60 -39 126 -68 66 -29 122 -57 124
-61 3 -4 23 -58 45 -119 22 -62 47 -124 55 -137 28 -43 52 -12 106 133 l47
129 124 55 c111 50 123 58 126 83 3 26 -2 30 -75 63 -199 90 -176 73 -206 161
-48 140 -64 177 -84 190 -17 11 -22 11 -35 -4z"/>
<path d="M243 4262 c-128 -37 -210 -156 -200 -292 5 -75 29 -128 81 -181 61
-62 115 -82 236 -85 58 -2 110 -3 115 -3 6 -1 10 -75 10 -203 l0 -203 -120 -5
c-131 -5 -172 -19 -238 -80 -75 -68 -105 -190 -71 -295 28 -91 119 -173 214
-192 14 -2 87 -5 163 -6 l138 -1 -4 -51 c-8 -100 34 -204 104 -256 68 -51 108
-62 219 -65 58 -1 108 -2 113 -3 4 -1 7 -93 7 -206 l0 -205 -98 1 c-140 1
-196 -17 -261 -83 -89 -90 -110 -216 -54 -328 l30 -60 -31 -62 c-64 -133 -23
-282 100 -366 48 -33 129 -49 227 -47 l87 3 0 -207 0 -206 -109 -2 c-94 -1
-118 -5 -165 -26 -199 -91 -230 -346 -59 -484 36 -29 68 -45 105 -52 58 -12
3506 -10 3564 2 108 22 254 95 351 174 106 87 210 250 249 393 19 69 26 282
12 350 -43 202 -173 395 -335 498 -24 15 -43 29 -43 32 0 3 19 16 43 30 111
67 250 241 299 376 66 186 61 419 -14 581 -130 285 -386 456 -706 472 -7 1 2
16 20 34 135 132 217 326 223 527 9 355 -233 676 -584 772 -76 21 -84 21
-1823 23 -1464 1 -1755 -1 -1795 -13z"/>
<path d="M4900 3613 c-33 -28 -37 -50 -15 -92 25 -49 78 -55 119 -15 32 33 33
65 3 100 -31 36 -70 39 -107 7z"/>
</g>
</svg>
